<svg width="16" height="16" viewBox="0 0 16 16" fill="none" xmlns="http://www.w3.org/2000/svg">
<g clip-path="url(#clip0_1296_6934)">
<path d="M8 15C11.5899 15 14.5 12.0899 14.5 8.5C14.5 4.91015 11.5899 2 8 2C4.41015 2 1.5 4.91015 1.5 8.5C1.5 12.0899 4.41015 15 8 15Z" stroke="#30373F"/>
<path d="M5.65685 2.12131C4.48528 0.949736 2.74408 0.791445 1.76777 1.76776C0.791456 2.74407 0.949748 4.48527 2.12132 5.65684" stroke="#30373F"/>
<path d="M10 2.12131C11.1716 0.949736 12.9128 0.791445 13.8891 1.76776C14.8654 2.74407 14.7071 4.48527 13.5355 5.65684" stroke="#30373F"/>
<path d="M8.5 4.5C8.5 4.22386 8.27614 4 8 4C7.72386 4 7.5 4.22386 7.5 4.5V8.5C7.5 8.77614 7.72386 9 8 9C8.27614 9 8.5 8.77614 8.5 8.5V4.5Z" fill="#30373F"/>
<path d="M10.367 10.8267C10.5932 10.9851 10.905 10.9301 11.0634 10.7039C11.2218 10.4777 11.1668 10.1659 10.9406 10.0075L8.48316 8.28679C8.25695 8.1284 7.94518 8.18338 7.78679 8.40958C7.6284 8.63578 7.68338 8.94756 7.90958 9.10595L10.367 10.8267Z" fill="#30373F"/>
<path d="M12.1239 15.3625C12.2184 15.622 12.5053 15.7558 12.7648 15.6613C13.0243 15.5669 13.1581 15.2799 13.0636 15.0204L12.7216 14.0808C12.6272 13.8213 12.3403 13.6875 12.0808 13.7819C11.8213 13.8764 11.6875 14.1633 11.7819 14.4228L12.1239 15.3625Z" fill="#30373F"/>
<path d="M4.06363 15.3625C3.96918 15.622 3.68226 15.7558 3.42277 15.6613C3.16328 15.5669 3.02949 15.2799 3.12394 15.0204L3.46596 14.0808C3.5604 13.8213 3.84732 13.6875 4.10681 13.7819C4.3663 13.8764 4.5001 14.1633 4.40565 14.4228L4.06363 15.3625Z" fill="#30373F"/>
</g>
<defs>
<clipPath id="clip0_1296_6934">
<rect width="16" height="16" fill="white"/>
</clipPath>
</defs>
</svg>
